<svg width="204" height="37" viewBox="0 0 204 37" fill="none" xmlns="http://www.w3.org/2000/svg">
<g clip-path="url(#clip0_27_26)">
<path d="M59.211 27.49C59.4333 27.4913 59.6537 27.4485 59.8593 27.3641C60.065 27.2796 60.2518 27.1552 60.409 26.998C60.5662 26.8408 60.6906 26.6539 60.7751 26.4483C60.8596 26.2427 60.9024 26.0223 60.901 25.8C60.9024 25.5777 60.8596 25.3573 60.7751 25.1517C60.6906 24.9461 60.5662 24.7592 60.409 24.602C60.2518 24.4448 60.065 24.3204 59.8593 24.2359C59.6537 24.1515 59.4333 24.1087 59.211 24.11H52.331V12.306C52.331 11.267 51.511 10.446 50.471 10.446C49.434 10.446 48.613 11.267 48.613 12.306V25.631C48.613 26.67 49.433 27.489 50.472 27.489H59.212L59.211 27.49ZM68.529 14.406C70.533 14.406 71.982 14.937 72.899 15.854C73.864 16.821 74.299 18.244 74.299 19.984V25.872C74.299 26.862 73.501 27.635 72.512 27.635C71.45 27.635 70.749 26.886 70.749 26.115V26.089C69.856 27.079 68.626 27.731 66.839 27.731C64.401 27.731 62.398 26.331 62.398 23.772V23.724C62.398 20.9 64.546 19.596 67.612 19.596C68.6894 19.5867 69.76 19.7667 70.775 20.128V19.91C70.775 18.389 69.831 17.544 67.998 17.544C67.1396 17.5343 66.2847 17.6561 65.463 17.905C65.2936 17.9689 65.1141 18.0021 64.933 18.003C64.087 18.003 63.412 17.351 63.412 16.507C63.412 15.872 63.806 15.304 64.401 15.082C65.561 14.647 66.815 14.406 68.529 14.406ZM68.479 21.793C66.912 21.793 65.946 22.421 65.946 23.579V23.626C65.946 24.616 66.767 25.196 67.951 25.196L68.145 25.192C69.686 25.126 70.735 24.277 70.817 23.079L70.822 22.928V22.275C70.194 21.986 69.374 21.793 68.48 21.793H68.479ZM79.296 27.635C80.31 27.635 81.129 26.815 81.129 25.8V22.372C81.129 19.765 82.169 18.342 84.027 17.907C84.775 17.737 85.402 17.157 85.402 16.193C85.402 15.153 84.75 14.406 83.617 14.406C82.529 14.406 81.661 15.565 81.131 16.821V16.241C81.131 15.7543 80.9377 15.2876 80.5936 14.9435C80.2495 14.5993 79.7827 14.406 79.296 14.406C78.8094 14.406 78.3426 14.5993 77.9985 14.9435C77.6544 15.2876 77.461 15.7543 77.461 16.241V25.801C77.461 26.814 78.281 27.634 79.294 27.634L79.296 27.635ZM92.306 14.406C94.311 14.406 95.759 14.937 96.676 15.854C97.641 16.821 98.076 18.244 98.076 19.984V25.872C98.076 26.862 97.279 27.635 96.29 27.635C95.227 27.635 94.527 26.886 94.527 26.115V26.089C93.634 27.079 92.404 27.732 90.616 27.732C88.178 27.731 86.176 26.331 86.176 23.772V23.724C86.176 20.9 88.324 19.596 91.39 19.596C92.4671 19.5868 93.5373 19.7668 94.552 20.128V19.91C94.552 18.389 93.609 17.544 91.776 17.544C90.9176 17.5343 90.0627 17.6561 89.241 17.905C89.0716 17.9689 88.8921 18.0021 88.711 18.003C87.864 18.003 87.189 17.351 87.189 16.507C87.189 15.872 87.584 15.304 88.179 15.082C89.339 14.647 90.592 14.406 92.306 14.406ZM92.258 21.793C90.69 21.793 89.724 22.421 89.724 23.579V23.626C89.724 24.616 90.545 25.196 91.727 25.196C93.441 25.196 94.599 24.256 94.599 22.928V22.275C93.972 21.986 93.152 21.793 92.258 21.793ZM106.428 27.756C107.418 27.756 108.095 27.103 108.504 26.163L112.463 17.013C112.535 16.844 112.657 16.458 112.657 16.144C112.657 15.9135 112.612 15.6852 112.523 15.4725C112.434 15.2598 112.304 15.0669 112.139 14.9052C111.975 14.7434 111.78 14.6159 111.566 14.5302C111.352 14.4445 111.124 14.4023 110.893 14.406C109.928 14.406 109.421 15.034 109.181 15.661L106.356 23.217L103.581 15.709C103.314 14.961 102.783 14.406 101.793 14.406C100.804 14.406 100.007 15.251 100.007 16.12C100.007 16.458 100.104 16.772 100.201 17.014L104.16 26.163C104.57 27.128 105.246 27.756 106.235 27.756H106.428ZM120.405 14.309C124.726 14.309 126.633 17.859 126.633 20.537C126.633 21.6 125.885 22.3 124.919 22.3H117.654C118.016 23.965 119.174 24.835 120.816 24.835C121.758 24.8427 122.675 24.5366 123.423 23.965C123.678 23.7659 123.994 23.6632 124.317 23.675C125.137 23.675 125.74 24.305 125.74 25.124C125.74 25.607 125.524 25.97 125.257 26.21C124.123 27.177 122.65 27.78 120.767 27.78C116.881 27.78 114.009 25.052 114.009 21.093V21.046C114.009 17.351 116.639 14.309 120.405 14.309ZM120.405 17.254C118.885 17.254 117.895 18.34 117.605 20.007H123.133C122.916 18.365 121.95 17.254 120.405 17.254ZM131.438 27.635C132.452 27.635 133.271 26.815 133.271 25.8V11.556C133.271 11.0696 133.078 10.6031 132.734 10.2592C132.39 9.91522 131.923 9.722 131.437 9.722C130.951 9.722 130.484 9.91522 130.14 10.2592C129.796 10.6031 129.603 11.0696 129.603 11.556V25.8C129.603 26.814 130.423 27.633 131.436 27.633L131.438 27.635ZM146.188 27.635C147.201 27.635 148.021 26.815 148.021 25.8V16.747L155.456 26.5C155.963 27.153 156.495 27.586 157.386 27.586H157.509C158.546 27.586 159.367 26.766 159.367 25.728V12.283C159.367 11.7963 159.174 11.3296 158.83 10.9855C158.485 10.6413 158.019 10.448 157.532 10.448C157.045 10.448 156.579 10.6413 156.235 10.9855C155.89 11.3296 155.697 11.7963 155.697 12.283V20.996L148.527 11.581C148.022 10.93 147.49 10.495 146.597 10.495H146.211C145.173 10.495 144.352 11.316 144.352 12.354V25.799C144.352 26.813 145.172 27.635 146.186 27.635H146.188ZM169.432 14.309C173.439 14.309 176.408 17.279 176.408 20.996V21.044C176.408 24.763 173.415 27.779 169.384 27.779C165.377 27.779 162.408 24.809 162.408 21.093V21.046C162.408 17.327 165.401 14.309 169.432 14.309ZM169.384 17.472C167.284 17.472 166.029 19.089 166.029 20.996V21.044C166.029 22.951 167.404 24.617 169.432 24.617C171.532 24.617 172.787 23 172.787 21.093V21.044C172.787 19.139 171.412 17.472 169.384 17.472ZM184.182 27.756C185.172 27.756 185.846 27.103 186.258 26.163L190.216 17.013C190.288 16.844 190.411 16.458 190.411 16.144C190.411 15.9135 190.366 15.6852 190.277 15.4725C190.188 15.2598 190.058 15.0669 189.893 14.9052C189.729 14.7434 189.534 14.6159 189.32 14.5302C189.106 14.4445 188.878 14.4023 188.647 14.406C187.681 14.406 187.174 15.034 186.934 15.661L184.109 23.217L181.332 15.709C181.068 14.961 180.536 14.406 179.546 14.406C178.557 14.406 177.76 15.251 177.76 16.12C177.76 16.458 177.857 16.772 177.954 17.014L181.913 26.163C182.323 27.128 182.999 27.756 183.988 27.756H184.182ZM197.942 14.406C199.945 14.406 201.393 14.937 202.31 15.854C203.277 16.821 203.71 18.244 203.71 19.984V25.872C203.71 26.862 202.914 27.635 201.924 27.635C200.863 27.635 200.163 26.886 200.163 26.115V26.089C199.269 27.079 198.037 27.731 196.253 27.731C193.813 27.731 191.809 26.331 191.809 23.772V23.724C191.809 20.9 193.958 19.596 197.024 19.596C198.101 19.5868 199.171 19.7668 200.186 20.128V19.91C200.186 18.389 199.244 17.544 197.41 17.544C196.552 17.5343 195.697 17.6561 194.875 17.905C194.706 17.969 194.526 18.0022 194.345 18.003C193.5 18.003 192.823 17.351 192.823 16.507C192.823 15.871 193.218 15.303 193.813 15.082C194.972 14.647 196.228 14.406 197.942 14.406ZM197.893 21.793C196.323 21.793 195.358 22.421 195.358 23.579V23.626C195.358 24.616 196.179 25.196 197.362 25.196C199.076 25.196 200.235 24.256 200.235 22.928V22.275C199.607 21.986 198.786 21.793 197.893 21.793Z" fill="white"/>
<path d="M30.34 9.99C36.14 15.71 36.21 25.06 30.49 30.86C30.46 30.89 30.42 30.93 30.39 30.96C26.93 34.41 22.25 36.34 17.37 36.32C11.94 36.33 6.77002 33.94 3.27002 29.78C10.48 35.74 21.21 35.36 27.98 28.66C32.49 24.21 32.54 16.94 28.09 12.43C28.05 12.39 28.01 12.35 27.98 12.32C23.42 7.81 16.03 7.81 11.47 12.32C9.54002 14.23 9.51002 17.34 11.42 19.27C11.44 19.29 11.45 19.3 11.47 19.32C13.43 21.25 16.58 21.25 18.55 19.32C19.2 18.68 20.25 18.68 20.91 19.32C21.55 19.96 21.56 20.99 20.93 21.64C20.93 21.64 20.92 21.65 20.91 21.66C17.64 24.88 12.39 24.88 9.12002 21.66C5.90002 18.48 5.86002 13.29 9.04002 10.07C9.07002 10.04 9.09002 10.02 9.12002 9.99C14.98 4.19 24.49 4.19 30.35 9.99H30.34ZM17.37 7.20611e-07C22.8 -0.00999928 27.97 2.38 31.47 6.54C24.26 0.580001 13.52 0.960001 6.76002 7.65C2.25002 12.1 2.19002 19.37 6.64002 23.88C6.68002 23.92 6.72002 23.96 6.76002 24C11.32 28.51 18.71 28.51 23.27 24C25.2 22.09 25.23 18.98 23.32 17.05C23.3 17.03 23.29 17.02 23.27 17C21.31 15.07 18.16 15.07 16.19 17C15.54 17.64 14.49 17.64 13.83 17C13.19 16.36 13.18 15.33 13.81 14.68C13.81 14.68 13.82 14.67 13.83 14.66C17.1 11.44 22.35 11.44 25.62 14.66C28.84 17.84 28.88 23.03 25.7 26.25C25.67 26.28 25.65 26.3 25.62 26.33C19.76 32.14 10.25 32.14 4.39002 26.33C-1.40998 20.61 -1.47998 11.27 4.24002 5.46C4.28002 5.42 4.32002 5.38 4.37002 5.33C7.83002 1.91 12.5 -0.00999928 17.37 7.20611e-07Z" fill="url(#paint0_radial_27_26)"/>
</g>
<defs>
<radialGradient id="paint0_radial_27_26" cx="0" cy="0" r="1" gradientUnits="userSpaceOnUse" gradientTransform="translate(-2.51212 1.07701) rotate(33.91) scale(35.0874 35.0874)">
<stop stop-color="#00FFC4"/>
<stop offset="1" stop-color="#00E1FF"/>
</radialGradient>
<clipPath id="clip0_27_26">
<rect width="204" height="37" fill="white"/>
</clipPath>
</defs>
</svg>
