<svg width="204" height="37" viewBox="0 0 204 37" fill="none" xmlns="http://www.w3.org/2000/svg">
<path d="M59.2164 27.49C59.4387 27.4914 59.6591 27.4486 59.8647 27.3641C60.0704 27.2796 60.2572 27.1552 60.4144 26.998C60.5716 26.8408 60.696 26.654 60.7805 26.4483C60.8649 26.2427 60.9077 26.0223 60.9064 25.8C60.9077 25.5777 60.8649 25.3574 60.7805 25.1517C60.696 24.9461 60.5716 24.7593 60.4144 24.6021C60.2572 24.4449 60.0704 24.3204 59.8647 24.236C59.6591 24.1515 59.4387 24.1087 59.2164 24.11H52.3364V12.306C52.3364 11.267 51.5164 10.446 50.4764 10.446C49.4394 10.446 48.6184 11.267 48.6184 12.306V25.631C48.6184 26.67 49.4384 27.489 50.4774 27.489H59.2174L59.2164 27.49ZM68.5344 14.406C70.5384 14.406 71.9874 14.937 72.9044 15.854C73.8694 16.821 74.3044 18.244 74.3044 19.984V25.872C74.3044 26.862 73.5064 27.635 72.5174 27.635C71.4554 27.635 70.7544 26.886 70.7544 26.115V26.089C69.8614 27.079 68.6314 27.731 66.8444 27.731C64.4064 27.731 62.4034 26.331 62.4034 23.772V23.724C62.4034 20.9 64.5514 19.596 67.6174 19.596C68.6948 19.5867 69.7654 19.7668 70.7804 20.128V19.91C70.7804 18.389 69.8364 17.544 68.0034 17.544C67.1449 17.5344 66.29 17.6561 65.4684 17.905C65.299 17.9689 65.1195 18.0021 64.9384 18.003C64.0924 18.003 63.4174 17.351 63.4174 16.507C63.4174 15.872 63.8114 15.304 64.4064 15.082C65.5664 14.647 66.8204 14.406 68.5344 14.406ZM68.4844 21.793C66.9174 21.793 65.9514 22.421 65.9514 23.579V23.626C65.9514 24.616 66.7724 25.196 67.9564 25.196L68.1504 25.192C69.6914 25.126 70.7404 24.277 70.8224 23.079L70.8274 22.928V22.275C70.1994 21.986 69.3794 21.793 68.4854 21.793H68.4844ZM79.3014 27.635C80.3154 27.635 81.1344 26.815 81.1344 25.8V22.372C81.1344 19.765 82.1744 18.342 84.0324 17.907C84.7804 17.737 85.4074 17.157 85.4074 16.193C85.4074 15.153 84.7554 14.406 83.6224 14.406C82.5344 14.406 81.6664 15.565 81.1364 16.821V16.241C81.1364 15.7544 80.9431 15.2876 80.599 14.9435C80.2548 14.5994 79.7881 14.406 79.3014 14.406C78.8147 14.406 78.348 14.5994 78.0039 14.9435C77.6597 15.2876 77.4664 15.7544 77.4664 16.241V25.801C77.4664 26.814 78.2864 27.634 79.2994 27.634L79.3014 27.635ZM92.3114 14.406C94.3164 14.406 95.7644 14.937 96.6814 15.854C97.6464 16.821 98.0814 18.244 98.0814 19.984V25.872C98.0814 26.862 97.2844 27.635 96.2954 27.635C95.2324 27.635 94.5324 26.886 94.5324 26.115V26.089C93.6394 27.079 92.4094 27.732 90.6214 27.732C88.1834 27.731 86.1814 26.331 86.1814 23.772V23.724C86.1814 20.9 88.3294 19.596 91.3954 19.596C92.4724 19.5868 93.5427 19.7669 94.5574 20.128V19.91C94.5574 18.389 93.6144 17.544 91.7814 17.544C90.9229 17.5344 90.068 17.6561 89.2464 17.905C89.077 17.9689 88.8975 18.0021 88.7164 18.003C87.8694 18.003 87.1944 17.351 87.1944 16.507C87.1944 15.872 87.5894 15.304 88.1844 15.082C89.3444 14.647 90.5974 14.406 92.3114 14.406ZM92.2634 21.793C90.6954 21.793 89.7294 22.421 89.7294 23.579V23.626C89.7294 24.616 90.5504 25.196 91.7324 25.196C93.4464 25.196 94.6044 24.256 94.6044 22.928V22.275C93.9774 21.986 93.1574 21.793 92.2634 21.793ZM106.433 27.756C107.423 27.756 108.1 27.103 108.509 26.163L112.468 17.013C112.54 16.844 112.662 16.458 112.662 16.144C112.663 15.9135 112.617 15.6853 112.528 15.4726C112.439 15.2599 112.309 15.067 112.145 14.9052C111.981 14.7434 111.786 14.616 111.572 14.5303C111.358 14.4445 111.129 14.4023 110.898 14.406C109.933 14.406 109.426 15.034 109.186 15.661L106.361 23.217L103.586 15.709C103.319 14.961 102.788 14.406 101.798 14.406C100.809 14.406 100.012 15.251 100.012 16.12C100.012 16.458 100.109 16.772 100.206 17.014L104.165 26.163C104.575 27.128 105.251 27.756 106.24 27.756H106.433ZM120.41 14.309C124.731 14.309 126.638 17.859 126.638 20.537C126.638 21.6 125.89 22.3 124.924 22.3H117.659C118.021 23.965 119.179 24.835 120.821 24.835C121.763 24.8428 122.68 24.5367 123.428 23.965C123.683 23.766 124 23.6633 124.322 23.675C125.142 23.675 125.745 24.305 125.745 25.124C125.745 25.607 125.529 25.97 125.262 26.21C124.128 27.177 122.655 27.78 120.772 27.78C116.886 27.78 114.014 25.052 114.014 21.093V21.046C114.014 17.351 116.644 14.309 120.41 14.309ZM120.41 17.254C118.89 17.254 117.9 18.34 117.61 20.007H123.138C122.921 18.365 121.955 17.254 120.41 17.254ZM131.443 27.635C132.457 27.635 133.276 26.815 133.276 25.8V11.556C133.276 11.0696 133.083 10.6032 132.739 10.2592C132.395 9.91527 131.929 9.72204 131.442 9.72204C130.956 9.72204 130.49 9.91527 130.146 10.2592C129.802 10.6032 129.608 11.0696 129.608 11.556V25.8C129.608 26.814 130.428 27.633 131.441 27.633L131.443 27.635ZM146.193 27.635C147.206 27.635 148.026 26.815 148.026 25.8V16.747L155.461 26.5C155.968 27.153 156.5 27.586 157.391 27.586H157.514C158.551 27.586 159.372 26.766 159.372 25.728V12.283C159.372 11.7964 159.179 11.3296 158.835 10.9855C158.491 10.6414 158.024 10.448 157.537 10.448C157.051 10.448 156.584 10.6414 156.24 10.9855C155.896 11.3296 155.702 11.7964 155.702 12.283V20.996L148.532 11.581C148.027 10.93 147.495 10.495 146.602 10.495H146.216C145.178 10.495 144.357 11.316 144.357 12.354V25.799C144.357 26.813 145.177 27.635 146.191 27.635H146.193ZM169.437 14.309C173.444 14.309 176.413 17.279 176.413 20.996V21.044C176.413 24.763 173.42 27.779 169.389 27.779C165.382 27.779 162.413 24.809 162.413 21.093V21.046C162.413 17.327 165.406 14.309 169.437 14.309ZM169.389 17.472C167.289 17.472 166.034 19.089 166.034 20.996V21.044C166.034 22.951 167.409 24.617 169.437 24.617C171.537 24.617 172.792 23 172.792 21.093V21.044C172.792 19.139 171.417 17.472 169.389 17.472ZM184.187 27.756C185.177 27.756 185.851 27.103 186.263 26.163L190.221 17.013C190.293 16.844 190.416 16.458 190.416 16.144C190.417 15.9135 190.371 15.6853 190.282 15.4726C190.193 15.2599 190.063 15.067 189.899 14.9052C189.735 14.7434 189.54 14.616 189.326 14.5303C189.112 14.4445 188.883 14.4023 188.652 14.406C187.686 14.406 187.179 15.034 186.939 15.661L184.114 23.217L181.337 15.709C181.073 14.961 180.541 14.406 179.551 14.406C178.562 14.406 177.765 15.251 177.765 16.12C177.765 16.458 177.862 16.772 177.959 17.014L181.918 26.163C182.328 27.128 183.004 27.756 183.993 27.756H184.187ZM197.947 14.406C199.95 14.406 201.398 14.937 202.315 15.854C203.282 16.821 203.715 18.244 203.715 19.984V25.872C203.715 26.862 202.919 27.635 201.929 27.635C200.868 27.635 200.168 26.886 200.168 26.115V26.089C199.274 27.079 198.042 27.731 196.258 27.731C193.818 27.731 191.814 26.331 191.814 23.772V23.724C191.814 20.9 193.963 19.596 197.029 19.596C198.106 19.5868 199.177 19.7669 200.191 20.128V19.91C200.191 18.389 199.249 17.544 197.415 17.544C196.557 17.5344 195.702 17.6561 194.88 17.905C194.711 17.969 194.531 18.0022 194.35 18.003C193.505 18.003 192.828 17.351 192.828 16.507C192.828 15.871 193.223 15.303 193.818 15.082C194.977 14.647 196.233 14.406 197.947 14.406ZM197.898 21.793C196.328 21.793 195.363 22.421 195.363 23.579V23.626C195.363 24.616 196.184 25.196 197.367 25.196C199.081 25.196 200.24 24.256 200.24 22.928V22.275C199.612 21.986 198.791 21.793 197.898 21.793Z" fill="#2C3D50"/>
<path d="M30.3454 9.99005C36.1454 15.71 36.2154 25.06 30.4954 30.86C30.4654 30.89 30.4254 30.93 30.3954 30.96C26.9354 34.41 22.2554 36.34 17.3754 36.32C11.9454 36.33 6.77539 33.94 3.27539 29.78C10.4854 35.74 21.2154 35.36 27.9854 28.66C32.4954 24.21 32.5454 16.94 28.0954 12.43C28.0554 12.39 28.0154 12.35 27.9854 12.32C23.4254 7.81005 16.0354 7.81005 11.4754 12.32C9.54539 14.23 9.51539 17.34 11.4254 19.27C11.4454 19.29 11.4554 19.3 11.4754 19.32C13.4354 21.25 16.5854 21.25 18.5554 19.32C19.2054 18.68 20.2554 18.68 20.9154 19.32C21.5554 19.96 21.5654 20.99 20.9354 21.64C20.9354 21.64 20.9254 21.65 20.9154 21.66C17.6454 24.88 12.3954 24.88 9.12539 21.66C5.90539 18.48 5.86539 13.29 9.04539 10.07C9.07539 10.04 9.09539 10.02 9.12539 9.99005C14.9854 4.19005 24.4954 4.19005 30.3554 9.99005H30.3454ZM17.3754 4.6497e-05C22.8054 -0.0099535 27.9754 2.38005 31.4754 6.54005C24.2654 0.580047 13.5254 0.960047 6.76539 7.65005C2.25539 12.1 2.19539 19.37 6.64539 23.88C6.68539 23.92 6.72539 23.96 6.76539 24C11.3254 28.51 18.7154 28.51 23.2754 24C25.2054 22.09 25.2354 18.98 23.3254 17.05C23.3054 17.03 23.2954 17.02 23.2754 17C21.3154 15.07 18.1654 15.07 16.1954 17C15.5454 17.64 14.4954 17.64 13.8354 17C13.1954 16.36 13.1854 15.33 13.8154 14.68C13.8154 14.68 13.8254 14.67 13.8354 14.66C17.1054 11.44 22.3554 11.44 25.6254 14.66C28.8454 17.84 28.8854 23.03 25.7054 26.25C25.6754 26.28 25.6554 26.3 25.6254 26.33C19.7654 32.14 10.2554 32.14 4.39539 26.33C-1.40461 20.61 -1.47461 11.27 4.24539 5.46005C4.28539 5.42005 4.32539 5.38005 4.37539 5.33005C7.83539 1.91005 12.5054 -0.0099535 17.3754 4.6497e-05Z" fill="url(#paint0_radial_32_67)"/>
<defs>
<radialGradient id="paint0_radial_32_67" cx="0" cy="0" r="1" gradientUnits="userSpaceOnUse" gradientTransform="translate(-2.50674 1.07705) rotate(33.91) scale(35.0874 35.0874)">
<stop stop-color="#00FFC4"/>
<stop offset="1" stop-color="#00E1FF"/>
</radialGradient>
</defs>
</svg>
