<svg viewBox="0 0 204 37" xmlns="http://www.w3.org/2000/svg"><defs><radialGradient cx="-4.619%" cy="6.646%" fx="-4.619%" fy="6.646%" r="101.342%" gradientTransform="matrix(.8299 .53351 -.5579 .79363 .03 .038)" id="a" > <stop stop-color="#00FFC4" offset="0%"></stop> <stop stop-color="#00E1FF" offset="100%"></stop> </radialGradient> </defs> <g fill-rule="nonzero"> <path d="M30.343 9.99a14.757 14.757 0 0 1 .046 20.972 18.383 18.383 0 0 1-13.019 5.365A18.382 18.382 0 0 1 3.272 29.79c7.209 5.955 17.945 5.581 24.713-1.118a11.477 11.477 0 0 0 0-16.345c-4.56-4.514-11.953-4.514-16.513 0a4.918 4.918 0 0 0 0 7.006 5.04 5.04 0 0 0 7.077 0 1.68 1.68 0 0 1 2.359 0 1.639 1.639 0 0 1 0 2.333 8.4 8.4 0 0 1-11.794 0 8.198 8.198 0 0 1 0-11.674c5.861-5.805 15.366-5.805 21.229 0ZM17.37 0a18.38 18.38 0 0 1 14.097 6.538C24.257.583 13.52.958 6.756 7.653v.002a11.477 11.477 0 0 0 0 16.346c4.558 4.515 11.95 4.515 16.51 0a4.918 4.918 0 0 0 0-7.005 5.04 5.04 0 0 0-7.077 0 1.68 1.68 0 0 1-2.358 0 1.639 1.639 0 0 1 0-2.334 8.4 8.4 0 0 1 11.794 0 8.198 8.198 0 0 1 0 11.674c-5.862 5.805-15.367 5.805-21.23 0a14.756 14.756 0 0 1-.02-20.994A18.383 18.383 0 0 1 17.37 0Z" fill="url(#a)" ></path> <path d="M59.211 27.49a1.68 1.68 0 0 0 1.69-1.69 1.68 1.68 0 0 0-1.69-1.69h-6.88V12.306c0-1.039-.82-1.86-1.86-1.86-1.037 0-1.858.821-1.858 1.86v13.325c0 1.039.82 1.858 1.859 1.858h8.74Zm9.318-13.084c2.004 0 3.453.531 4.37 1.448.965.967 1.4 2.39 1.4 4.13v5.888c0 .99-.798 1.763-1.787 1.763-1.062 0-1.763-.749-1.763-1.52v-.026c-.893.99-2.123 1.642-3.91 1.642-2.438 0-4.441-1.4-4.441-3.959v-.048c0-2.824 2.148-4.128 5.214-4.128a9.195 9.195 0 0 1 3.163.532v-.218c0-1.521-.944-2.366-2.777-2.366a8.416 8.416 0 0 0-2.535.361 1.525 1.525 0 0 1-.53.098c-.846 0-1.521-.652-1.521-1.496 0-.635.394-1.203.989-1.425 1.16-.435 2.414-.676 4.128-.676Zm-.05 7.387c-1.567 0-2.533.628-2.533 1.786v.047c0 .99.821 1.57 2.005 1.57h-.001l.195-.004c1.541-.066 2.59-.915 2.672-2.113l.005-.151v-.653c-.628-.289-1.448-.482-2.342-.482Zm10.817 5.842c1.014 0 1.833-.82 1.833-1.835v-3.428c0-2.607 1.04-4.03 2.898-4.465.748-.17 1.375-.75 1.375-1.714 0-1.04-.652-1.787-1.785-1.787-1.088 0-1.956 1.159-2.486 2.415v-.58a1.835 1.835 0 1 0-3.67 0v9.56c0 1.013.82 1.833 1.833 1.833l.002.001Zm13.01-13.229c2.005 0 3.453.531 4.37 1.448.965.967 1.4 2.39 1.4 4.13v5.888c0 .99-.797 1.763-1.786 1.763-1.063 0-1.763-.749-1.763-1.52v-.026c-.893.99-2.123 1.643-3.911 1.643-2.438-.001-4.44-1.401-4.44-3.96v-.048c0-2.824 2.148-4.128 5.214-4.128a9.195 9.195 0 0 1 3.162.532v-.218c0-1.521-.943-2.366-2.776-2.366a8.416 8.416 0 0 0-2.535.361 1.525 1.525 0 0 1-.53.098c-.847 0-1.522-.652-1.522-1.496 0-.635.395-1.203.99-1.425 1.16-.435 2.413-.676 4.127-.676Zm-.048 7.387c-1.568 0-2.534.628-2.534 1.786v.047c0 .99.821 1.57 2.003 1.57 1.714 0 2.872-.94 2.872-2.268v-.653c-.627-.289-1.447-.482-2.341-.482Zm14.17 5.963c.99 0 1.667-.653 2.076-1.593l3.959-9.15c.072-.169.194-.555.194-.869a1.736 1.736 0 0 0-1.764-1.738c-.965 0-1.472.628-1.712 1.255l-2.825 7.556-2.775-7.508c-.267-.748-.798-1.303-1.788-1.303-.989 0-1.786.845-1.786 1.714 0 .338.097.652.194.894l3.959 9.149c.41.965 1.086 1.593 2.075 1.593h.194-.001Zm13.977-13.447c4.321 0 6.228 3.55 6.228 6.228 0 1.063-.748 1.763-1.714 1.763h-7.265c.362 1.665 1.52 2.535 3.162 2.535a4.237 4.237 0 0 0 2.607-.87 1.37 1.37 0 0 1 .894-.29c.82 0 1.423.63 1.423 1.449 0 .483-.216.846-.483 1.086-1.134.967-2.607 1.57-4.49 1.57-3.886 0-6.758-2.728-6.758-6.687v-.047c0-3.695 2.63-6.737 6.396-6.737Zm0 2.945c-1.52 0-2.51 1.086-2.8 2.753h5.528c-.217-1.642-1.183-2.753-2.728-2.753Zm11.033 10.381c1.014 0 1.833-.82 1.833-1.835V11.556a1.834 1.834 0 0 0-3.668 0V25.8c0 1.014.82 1.833 1.833 1.833l.002.003Zm14.75 0c1.013 0 1.833-.82 1.833-1.835v-9.053l7.435 9.753c.507.653 1.039 1.086 1.93 1.086h.123c1.037 0 1.858-.82 1.858-1.858V12.283a1.835 1.835 0 0 0-3.67 0v8.713l-7.17-9.415c-.505-.651-1.037-1.086-1.93-1.086h-.386c-1.038 0-1.859.821-1.859 1.859v13.445c0 1.014.82 1.836 1.834 1.836h.001Zm23.244-13.326c4.007 0 6.976 2.97 6.976 6.687v.048c0 3.719-2.993 6.735-7.024 6.735-4.007 0-6.976-2.97-6.976-6.686v-.047c0-3.719 2.993-6.737 7.024-6.737Zm-.048 3.163c-2.1 0-3.355 1.617-3.355 3.524v.048c0 1.907 1.375 3.573 3.403 3.573 2.1 0 3.355-1.617 3.355-3.524v-.049c0-1.905-1.375-3.572-3.403-3.572Zm14.798 10.284c.99 0 1.664-.653 2.076-1.593l3.958-9.15c.072-.169.195-.555.195-.869a1.736 1.736 0 0 0-1.764-1.738c-.966 0-1.473.628-1.713 1.255l-2.825 7.556-2.777-7.508c-.264-.748-.796-1.303-1.786-1.303-.989 0-1.786.845-1.786 1.714 0 .338.097.652.194.894l3.959 9.149c.41.965 1.086 1.593 2.075 1.593h.194Zm13.76-13.35c2.003 0 3.451.531 4.368 1.448.967.967 1.4 2.39 1.4 4.13v5.888c0 .99-.796 1.763-1.786 1.763-1.061 0-1.761-.749-1.761-1.52v-.026c-.894.99-2.126 1.642-3.91 1.642-2.44 0-4.444-1.4-4.444-3.959v-.048c0-2.824 2.149-4.128 5.215-4.128a9.195 9.195 0 0 1 3.162.532v-.218c0-1.521-.942-2.366-2.776-2.366a8.416 8.416 0 0 0-2.535.361 1.52 1.52 0 0 1-.53.098c-.845 0-1.522-.652-1.522-1.496 0-.636.395-1.204.99-1.425 1.159-.435 2.415-.676 4.129-.676Zm-.049 7.387c-1.57 0-2.535.628-2.535 1.786v.047c0 .99.821 1.57 2.004 1.57 1.714 0 2.873-.94 2.873-2.268v-.653c-.628-.289-1.449-.482-2.342-.482Z" fill="#FFF"></path></g></svg>
